<svg xmlns="http://www.w3.org/2000/svg" width="165.555" height="107" viewBox="0 0 165.555 107">
  <g id="undraw_collaborators_prrw" transform="translate(0 0)">
    <path id="Path_1" data-name="Path 1" d="M967.485,356.082l-.438,5.982a1.332,1.332,0,0,1-1.24,1.232h0a1.333,1.333,0,0,1-1.421-1.361l.139-5.853,5.149-16.516-.623-10.118,4.874-.174-.348,11.663Z" transform="translate(-813.09 -298.417)" fill="#a0616a"/>
    <path id="Path_2" data-name="Path 2" d="M991.947,302.256a4.865,4.865,0,0,0-5.478,2.116l-1.118-8.455a2.22,2.22,0,0,1,1.667-2.382h0a2.22,2.22,0,0,1,2.66,1.489Z" transform="translate(-830.104 -269.217)" fill="#e83d84"/>
    <path id="Path_3" data-name="Path 3" d="M949.966,221.076c-5.023-2.136-10.183-.783-16.293.157-.057-1.138-.746-2.522-.024-3.316a2.412,2.412,0,0,0,.269-3c-1.35-2.606.584-5.379,2.536-7.684a4.324,4.324,0,0,1,3.609-1.515l3.617.258c1.8.129,2.239,1.363,2.75,3.1h0a4.232,4.232,0,0,1,1.035,3.511,2.259,2.259,0,0,1,.93,3.154,1.813,1.813,0,0,0,.022,2.211,10.21,10.21,0,0,1,1.518,3.015Z" transform="translate(-787.867 -197.773)" fill="#2f2e41"/>
    <path id="Path_4" data-name="Path 4" d="M750.172,452.161h-2.4l-1.427-19.845,6.093-.174Z" transform="translate(-606.002 -351.628)" fill="#a0616a"/>
    <path id="Path_5" data-name="Path 5" d="M894.98,705.169c-.641.292-1.177-2.077-1.718-1.546-1.512,1.485-5.138,1.153-5.138,1.153a.945.945,0,0,1-.6-1.231h0a.945.945,0,0,1,.656-.585l1.608-.4,2.524-4.439,2.577-.174h0a6.156,6.156,0,0,1,1.139,5.252C895.8,704.15,895.437,704.96,894.98,705.169Z" transform="translate(-750.636 -598.194)" fill="#2f2e41"/>
    <path id="Path_6" data-name="Path 6" d="M835.252,447.652h-2.4l-1.427-19.845,6.267-1.218Z" transform="translate(-675.084 -347.118)" fill="#a0616a"/>
    <path id="Path_7" data-name="Path 7" d="M980.065,704.417c-.641.292-1.177-2.077-1.718-1.546-1.512,1.485-5.138,1.152-5.138,1.152a.945.945,0,0,1-.6-1.231h0a.945.945,0,0,1,.656-.585l1.608-.4,2.524-4.439,2.751-.348.069.114a7.093,7.093,0,0,1,.76,5.8A2.435,2.435,0,0,1,980.065,704.417Z" transform="translate(-819.722 -597.442)" fill="#2f2e41"/>
    <path id="Path_8" data-name="Path 8" d="M916.3,426.83c-3.883,1.718-6.209-.141-10.162.421-1.129.161-2.458-16.437-3.592-16.368-1.444.088-2.694,16.816-4.147,16.758a48.029,48.029,0,0,1-10.8-1.707c3.764-14.6,8.209-27.8,8.182-38.646l11.293-.87,1.555,2.465a92.992,92.992,0,0,1,6.307,19.137Z" transform="translate(-750.748 -344.97)" fill="#2f2e41"/>
    <circle id="Ellipse_2" data-name="Ellipse 2" cx="5.222" cy="5.222" r="5.222" transform="translate(145.388 9.886)" fill="#a0616a"/>
    <path id="Path_9" data-name="Path 9" d="M799.191,102.351l-6.441.348L791.7,96.954l5.223-.87Z" transform="translate(-642.835 -78.15)" fill="#a0616a"/>
    <path id="Path_10" data-name="Path 10" d="M934.98,304.6l-8.253.2-3.563.5c-1.749-5.777-3.221-11.54.348-16.364l4.178-4.178,6.267-.174.083.047a5.047,5.047,0,0,1,2.312,5.871C934.8,295.554,934.995,300.327,934.98,304.6Z" transform="translate(-778.125 -262.009)" fill="#e83d84"/>
    <path id="Path_11" data-name="Path 11" d="M946.685,217.436a6.35,6.35,0,0,0-1.606-4.229v-1.855h-5.663a3.288,3.288,0,0,0-3.288,3.288H939.9c-1.018,1.874-1.457,3.838-.477,5.731a5.083,5.083,0,0,1-.193,4.5,11.214,11.214,0,0,0,1.279,0c1.749,0,6.521.228,7.673-.913S946.685,219.208,946.685,217.436Z" transform="translate(-790.146 -202.355)" fill="#2f2e41"/>
    <path id="Path_12" data-name="Path 12" d="M797.671,474.758H764.217a.8.8,0,0,0-.8.8V510.67a.8.8,0,0,0,.8.8h33.454a.8.8,0,0,0,.8-.8V475.555A.8.8,0,0,0,797.671,474.758Z" transform="translate(-649.913 -416.975)" fill="#e6e6e6"/>
    <path id="Path_13" data-name="Path 13" d="M801.178,480.058H769.319a.6.6,0,0,0-.6.6v33.52a.6.6,0,0,0,.6.6h31.859a.6.6,0,0,0,.6-.6v-33.52A.6.6,0,0,0,801.178,480.058Z" transform="translate(-654.217 -421.278)" fill="#fff"/>
    <path id="Path_14" data-name="Path 14" d="M916.81,361.383l-.438,5.982a1.332,1.332,0,0,1-1.24,1.232h0a1.333,1.333,0,0,1-1.421-1.361l.139-5.853,4.352-16.538.174-10.1,4.874-.174-.348,11.663Z" transform="translate(-771.944 -302.731)" fill="#a0616a"/>
    <path id="Path_15" data-name="Path 15" d="M942.417,298.607a4.865,4.865,0,0,0-5.745,1.219l.24-8.525a2.22,2.22,0,0,1,2.025-2.087h0a2.22,2.22,0,0,1,2.39,1.893Z" transform="translate(-790.588 -265.75)" fill="#e83d84"/>
    <path id="Path_16" data-name="Path 16" d="M810.121,525.15a.343.343,0,0,1,.343.343v.687a.343.343,0,0,1-.343.343H782.99a.343.343,0,0,1-.343-.343v-.687a.343.343,0,0,1,.343-.343h27.131" transform="translate(-665.525 -457.623)" fill="#e6e6e6"/>
    <path id="Path_17" data-name="Path 17" d="M810.121,542.5a.343.343,0,0,1,.343.343v.687a.344.344,0,0,1-.343.343H782.99a.343.343,0,0,1-.343-.343v-.687a.343.343,0,0,1,.343-.343h27.131" transform="translate(-665.525 -471.734)" fill="#e6e6e6"/>
    <path id="Path_18" data-name="Path 18" d="M810.121,559.851a.343.343,0,0,1,.344.343v.687a.343.343,0,0,1-.344.343H782.99a.343.343,0,0,1-.344-.343v-.687a.344.344,0,0,1,.344-.344h27.131" transform="translate(-665.524 -485.844)" fill="#e83d84"/>
    <path id="Path_19" data-name="Path 19" d="M810.121,577.582a.343.343,0,0,1,.343.343v.687a.344.344,0,0,1-.343.343H782.99a.344.344,0,0,1-.343-.343v-.687a.343.343,0,0,1,.343-.343h27.131" transform="translate(-665.525 -500.264)" fill="#e6e6e6"/>
    <path id="Path_20" data-name="Path 20" d="M810.121,594.932a.343.343,0,0,1,.343.343v.687a.344.344,0,0,1-.343.344H782.99a.343.343,0,0,1-.343-.344v-.687a.343.343,0,0,1,.343-.343h27.131" transform="translate(-665.525 -514.375)" fill="#e6e6e6"/>
    <path id="Path_21" data-name="Path 21" d="M810.121,612.283a.344.344,0,0,1,.344.343v.687a.343.343,0,0,1-.344.343H782.99a.344.344,0,0,1-.344-.343v-.687a.343.343,0,0,1,.344-.343h27.131" transform="translate(-665.524 -528.486)" fill="#e6e6e6"/>
    <path id="Path_22" data-name="Path 22" d="M205.494,506.069l-2.664.148-6.068-40.847-5.7,40.773-2.886-.666c-1.6-17.576-3.689-35.743-2.22-43.659h20.275C209.245,469.687,207.235,488.162,205.494,506.069Z" transform="translate(-180.63 -406.468)" fill="#2f2e41"/>
    <path id="Path_23" data-name="Path 23" d="M194.093,698.479h0a2.385,2.385,0,0,1-2.194-2.952l1.212-4.925c1.013-1.259,1.92-1.2,2.735,0l.832-.357.595,4.281-.82,2.4A2.385,2.385,0,0,1,194.093,698.479Z" transform="translate(-185.803 -591.482)" fill="#2f2e41"/>
    <path id="Path_24" data-name="Path 24" d="M275.9,698.48h0a2.385,2.385,0,0,0,2.194-2.952l-1.212-4.925c-1.013-1.259-1.92-1.2-2.735,0l-.832-.357-.595,4.281.82,2.4A2.385,2.385,0,0,0,275.9,698.48Z" transform="translate(-251.485 -591.483)" fill="#2f2e41"/>
    <circle id="Ellipse_3" data-name="Ellipse 3" cx="5.92" cy="5.92" r="5.92" transform="translate(10.804 2.52)" fill="#ffb8b8"/>
    <path id="Path_25" data-name="Path 25" d="M75.235,69.254H67.687l.444-7.844h7.1Z" transform="translate(-54.959 -49.863)" fill="#ffb8b8"/>
    <path id="Path_26" data-name="Path 26" d="M206.58,288.881H182.6c3.5-11.787,2.881-24.414.3-37.443l6.512-2.072,1.776-1.48c2.229,2.714,4.693,2.692,7.4-.148l2.22,1.628,6.512,2.22C203.886,264.139,203.327,276.583,206.58,288.881Z" transform="translate(-178.313 -231.899)" fill="#e83d84"/>
    <path id="Path_27" data-name="Path 27" d="M213.795,170.413a5.357,5.357,0,0,1,.363-4.353,5.206,5.206,0,0,1,4.795-2.553c5.843-.148,8.376,4.258,8.046,5.55s-1.507,4.366-1.507,4.366.73-2.96-.73-3.256-7.122-1.48-8.765-.148a3.34,3.34,0,0,0-1.278,3.108Z" transform="translate(-203.394 -163.503)" fill="#2f2e41"/>
    <path id="Path_28" data-name="Path 28" d="M194.455,475.818H161a.8.8,0,0,0-.8.8V511.73a.8.8,0,0,0,.8.8h33.454a.8.8,0,0,0,.8-.8V476.615A.8.8,0,0,0,194.455,475.818Z" transform="translate(-160.124 -417.835)" fill="#e6e6e6"/>
    <path id="Path_29" data-name="Path 29" d="M197.962,481.118H166.1a.6.6,0,0,0-.6.6v33.52a.6.6,0,0,0,.6.6h31.859a.6.6,0,0,0,.6-.6v-33.52A.6.6,0,0,0,197.962,481.118Z" transform="translate(-164.428 -422.139)" fill="#fff"/>
    <path id="Path_30" data-name="Path 30" d="M299.306,362.506h0a2.424,2.424,0,0,1-1.352-3.209l1.98-4.654-.3-14.8-1.036-5.032,5.328-2.072,1.036,6.956-1.924,15.984-.444,4.791a2.424,2.424,0,0,1-3.293,2.036Z" transform="translate(-271.815 -301.221)" fill="#ffb8b8"/>
    <path id="Path_31" data-name="Path 31" d="M165.44,362.506h0a2.424,2.424,0,0,0,1.352-3.209l-1.98-4.654.3-14.8,1.036-5.032-5.328-2.072L159.78,339.7l1.924,15.984.444,4.791a2.424,2.424,0,0,0,3.293,2.036Z" transform="translate(-159.78 -301.221)" fill="#ffb8b8"/>
    <path id="Path_32" data-name="Path 32" d="M301.619,280.141a18.89,18.89,0,0,0-5.92,2.664l-1.332-4,3.4-11.4h0a4.862,4.862,0,0,1,3.315,4.305,46.362,46.362,0,0,0,.533,8.422Z" transform="translate(-269.06 -248.032)" fill="#e83d84"/>
    <path id="Path_33" data-name="Path 33" d="M162.928,279.5a18.892,18.892,0,0,1,5.92,2.664l1.332-4-2.96-11.544h0a5.534,5.534,0,0,0-3.759,4.453A46.363,46.363,0,0,1,162.928,279.5Z" transform="translate(-162.336 -247.392)" fill="#e83d84"/>
    <path id="Path_34" data-name="Path 34" d="M206.906,525.225a.343.343,0,0,1,.343.343v.687a.343.343,0,0,1-.343.343H179.775a.343.343,0,0,1-.343-.343v-.687a.343.343,0,0,1,.343-.343h27.131" transform="translate(-175.736 -457.684)" fill="#e6e6e6"/>
    <path id="Path_35" data-name="Path 35" d="M206.906,542.576a.343.343,0,0,1,.343.343v.687a.343.343,0,0,1-.343.343H179.775a.343.343,0,0,1-.343-.343v-.687a.343.343,0,0,1,.343-.343h27.131" transform="translate(-175.736 -471.795)" fill="#e6e6e6"/>
    <path id="Path_36" data-name="Path 36" d="M206.906,559.927a.343.343,0,0,1,.343.343v.687a.343.343,0,0,1-.343.343H179.775a.343.343,0,0,1-.343-.343v-.687a.343.343,0,0,1,.343-.343h27.131" transform="translate(-175.736 -485.906)" fill="#e83d84"/>
    <path id="Path_37" data-name="Path 37" d="M206.906,577.657a.343.343,0,0,1,.343.343v.687a.343.343,0,0,1-.343.344H179.775a.344.344,0,0,1-.343-.344V578a.343.343,0,0,1,.343-.343h27.131" transform="translate(-175.736 -500.325)" fill="#e6e6e6"/>
    <path id="Path_38" data-name="Path 38" d="M206.906,595.008a.343.343,0,0,1,.343.343v.687a.343.343,0,0,1-.343.343H179.775a.343.343,0,0,1-.343-.343v-.687a.343.343,0,0,1,.343-.343h27.131" transform="translate(-175.736 -514.436)" fill="#e6e6e6"/>
    <path id="Path_39" data-name="Path 39" d="M206.906,612.359a.343.343,0,0,1,.343.343v.687a.343.343,0,0,1-.343.343H179.775a.343.343,0,0,1-.343-.343V612.7a.343.343,0,0,1,.343-.343h27.131" transform="translate(-175.736 -528.548)" fill="#e6e6e6"/>
    <path id="Path_40" data-name="Path 40" d="M537.7,350.086H504.251a.8.8,0,0,0-.8.8v58.561a.8.8,0,0,0,.8.8H537.7a.8.8,0,0,0,.8-.8V350.883A.8.8,0,0,0,537.7,350.086Z" transform="translate(-438.83 -315.746)" fill="#e6e6e6"/>
    <path id="Path_41" data-name="Path 41" d="M541.8,355.858a.643.643,0,0,0-.084-.2.6.6,0,0,0-.5-.269H509.353a.6.6,0,0,0-.6.6v56.966a.6.6,0,0,0,.6.6h31.859a.6.6,0,0,0,.6-.6V355.985A.546.546,0,0,0,541.8,355.858Z" transform="translate(-443.134 -320.05)" fill="#fff"/>
    <path id="Path_42" data-name="Path 42" d="M550.155,519.924a.343.343,0,0,1,.343.343v.687a.343.343,0,0,1-.343.343H523.024a.343.343,0,0,1-.343-.343v-.687a.343.343,0,0,1,.343-.343h27.131" transform="translate(-454.442 -453.372)" fill="#e6e6e6"/>
    <path id="Path_43" data-name="Path 43" d="M550.155,537.275a.343.343,0,0,1,.343.343v.687a.343.343,0,0,1-.343.343H523.024a.343.343,0,0,1-.343-.343v-.687a.343.343,0,0,1,.343-.343h27.131" transform="translate(-454.442 -467.484)" fill="#e6e6e6"/>
    <path id="Path_44" data-name="Path 44" d="M550.155,554.626a.343.343,0,0,1,.343.343v.687a.343.343,0,0,1-.343.343H523.024a.343.343,0,0,1-.343-.343v-.687a.343.343,0,0,1,.343-.343h27.131" transform="translate(-454.442 -481.595)" fill="#e83d84"/>
    <path id="Path_45" data-name="Path 45" d="M550.155,572.356a.343.343,0,0,1,.343.343v.687a.343.343,0,0,1-.343.343H523.024a.343.343,0,0,1-.343-.343V572.7a.343.343,0,0,1,.343-.343h27.131" transform="translate(-454.442 -496.014)" fill="#e6e6e6"/>
    <path id="Path_46" data-name="Path 46" d="M550.155,589.707a.343.343,0,0,1,.343.343v.687a.343.343,0,0,1-.343.343H523.024a.343.343,0,0,1-.343-.343v-.687a.343.343,0,0,1,.343-.343h27.131" transform="translate(-454.442 -510.125)" fill="#e6e6e6"/>
    <path id="Path_47" data-name="Path 47" d="M550.155,607.058a.343.343,0,0,1,.343.343v.687a.343.343,0,0,1-.343.343H523.024a.343.343,0,0,1-.343-.343V607.4a.343.343,0,0,1,.343-.343h27.131" transform="translate(-454.442 -524.237)" fill="#e6e6e6"/>
    <path id="Path_48" data-name="Path 48" d="M523.83,384.489a.4.4,0,0,0-.4.4V403.41a.4.4,0,0,0,.4.4h26.738a.4.4,0,0,0,.4-.4V384.888a.4.4,0,0,0-.4-.4Z" transform="translate(-455.052 -343.285)" fill="#e83d84"/>
    <path id="Path_49" data-name="Path 49" d="M746.384,306.406c.727.309,1.449.651,2.147,1.018l.185-.353c-.707-.372-1.44-.719-2.176-1.032Z" transform="translate(-636.081 -279.425)" fill="#ccc"/>
    <path id="Path_50" data-name="Path 50" d="M789.14,333.37l-.266.3c.588.526,1.161,1.083,1.7,1.655l.289-.274C790.317,334.468,789.736,333.9,789.14,333.37Z" transform="translate(-670.581 -301.653)" fill="#ccc"/>
    <path id="Path_51" data-name="Path 51" d="M768.739,318.274c.666.423,1.323.878,1.952,1.353l.241-.318c-.638-.482-1.3-.944-1.979-1.372Z" transform="translate(-654.232 -289.102)" fill="#ccc"/>
    <path id="Path_52" data-name="Path 52" d="M722.434,298.366c.767.187,1.535.408,2.282.656l.126-.378c-.757-.251-1.536-.475-2.313-.665Z" transform="translate(-616.634 -272.869)" fill="#ccc"/>
    <path id="Path_53" data-name="Path 53" d="M837.072,421.385l-.394.063c.125.777.217,1.57.275,2.357l.4-.029C837.292,422.978,837.2,422.173,837.072,421.385Z" transform="translate(-709.397 -373.236)" fill="#ccc"/>
    <path id="Path_54" data-name="Path 54" d="M830.534,396.7c.258.745.486,1.51.678,2.274l.387-.1c-.195-.776-.426-1.552-.687-2.308Z" transform="translate(-704.407 -353.055)" fill="#ccc"/>
    <path id="Path_55" data-name="Path 55" d="M820.266,373.4c.382.69.738,1.405,1.059,2.124l.364-.162c-.325-.729-.687-1.454-1.074-2.154Z" transform="translate(-696.07 -334.052)" fill="#ccc"/>
    <path id="Path_56" data-name="Path 56" d="M806.225,352.2c.493.616.965,1.26,1.4,1.915l.331-.222c-.445-.664-.924-1.317-1.424-1.942Z" transform="translate(-684.669 -316.765)" fill="#ccc"/>
    <path id="Path_57" data-name="Path 57" d="M688.3,285.233a12.038,12.038,0,0,1-3.491,1.738,12.049,12.049,0,0,1,3.318,2.049l-.535-1.72c.658.061,1.317.143,1.964.247l.063-.394c-.663-.106-1.337-.19-2.01-.252Z" transform="translate(-586.085 -262.507)" fill="#ccc"/>
    <path id="Path_58" data-name="Path 58" d="M365.8,375.361l.364.162c.321-.718.677-1.433,1.059-2.124l-.349-.193C366.492,373.907,366.13,374.632,365.8,375.361Z" transform="translate(-327.065 -334.053)" fill="#ccc"/>
    <path id="Path_59" data-name="Path 59" d="M357.445,398.877l.387.1c.192-.764.42-1.529.678-2.275l-.377-.13C357.871,397.326,357.639,398.1,357.445,398.877Z" transform="translate(-320.277 -353.054)" fill="#ccc"/>
    <path id="Path_60" data-name="Path 60" d="M353.385,423.776l.4.029c.057-.787.15-1.581.275-2.357l-.394-.063C353.537,422.173,353.443,422.977,353.385,423.776Z" transform="translate(-316.98 -373.236)" fill="#ccc"/>
    <path id="Path_61" data-name="Path 61" d="M378.187,353.892l.331.222c.439-.654.911-1.3,1.4-1.915l-.311-.249C379.111,352.575,378.632,353.229,378.187,353.892Z" transform="translate(-337.118 -316.765)" fill="#ccc"/>
    <path id="Path_62" data-name="Path 62" d="M434.851,307.071l.185.353c.7-.367,1.421-.709,2.147-1.018l-.156-.367C436.292,306.352,435.56,306.7,434.851,307.071Z" transform="translate(-383.127 -279.424)" fill="#ccc"/>
    <path id="Path_63" data-name="Path 63" d="M458.4,298.644l.126.378c.747-.248,1.515-.469,2.282-.656l-.095-.387C459.936,298.168,459.158,298.392,458.4,298.644Z" transform="translate(-402.249 -272.868)" fill="#ccc"/>
    <path id="Path_64" data-name="Path 64" d="M394.169,335.047l.289.274c.542-.572,1.115-1.129,1.7-1.655l-.266-.3C395.3,333.9,394.718,334.467,394.169,335.047Z" transform="translate(-350.095 -301.652)" fill="#ccc"/>
    <path id="Path_65" data-name="Path 65" d="M413.241,319.309l.24.318c.629-.476,1.286-.931,1.952-1.353l-.214-.337C414.544,318.365,413.879,318.827,413.241,319.309Z" transform="translate(-365.581 -289.101)" fill="#ccc"/>
    <path id="Path_66" data-name="Path 66" d="M488.06,286.971a12.049,12.049,0,0,1-3.491-1.739l.691,1.669c-.673.062-1.348.146-2.01.252l.063.394c.647-.1,1.306-.186,1.964-.247l-.535,1.72A12.029,12.029,0,0,1,488.06,286.971Z" transform="translate(-422.425 -262.506)" fill="#ccc"/>
    <path id="Path_67" data-name="Path 67" d="M569.966,273.974a6.18,6.18,0,1,1,6.18-6.18A6.18,6.18,0,0,1,569.966,273.974Zm0-11.961a5.781,5.781,0,1,0,5.781,5.781A5.781,5.781,0,0,0,569.966,262.013Z" transform="translate(-487.818 -243.31)" fill="#e83d84"/>
    <rect id="Rectangle_25" data-name="Rectangle 25" width="1.196" height="5.98" transform="translate(81.55 21.48)" fill="#e83d84"/>
    <rect id="Rectangle_26" data-name="Rectangle 26" width="1.196" height="5.98" transform="translate(85.138 23.863) rotate(90)" fill="#e83d84"/>
  </g>
</svg>
