<svg xmlns="http://www.w3.org/2000/svg" xmlns:xlink="http://www.w3.org/1999/xlink" width="201.063" height="106.683" viewBox="0 0 201.063 106.683">
  <defs>
    <linearGradient id="linear-gradient" x1="0.5" y1="1" x2="0.5" gradientUnits="objectBoundingBox">
      <stop offset="0" stop-color="gray" stop-opacity="0.251"/>
      <stop offset="0.54" stop-color="gray" stop-opacity="0.122"/>
      <stop offset="1" stop-color="gray" stop-opacity="0.102"/>
    </linearGradient>
  </defs>
  <g id="undraw_community_8nwl" transform="translate(-0.001 -0.051)">
    <path id="Path_68" data-name="Path 68" d="M53.016,169.866c.326,2.067,1.158,4.063,1.165,6.153.027,6.83-8.26,11.025-9.528,17.736-.753,3.981,1.2,8.05,3.949,11.02s6.258,5.111,9.489,7.554A60.759,60.759,0,0,1,78,238.66a25.269,25.269,0,0,1,1.75,6.5,37.191,37.191,0,0,0,.471,4.886c1.511,6.314,9.174,8.765,15.653,9.174a68.644,68.644,0,0,0,30.538-5.1c2.172-.9,4.414-1.933,6.745-1.678a14.076,14.076,0,0,1,5.163,2.13,68.487,68.487,0,0,0,15.271,6.287,20.833,20.833,0,0,0,9.06.9c9.049-1.6,13.857-12.57,22.736-14.97,6.142-1.66,12.534,1.24,18.043,4.423s11.2,6.85,17.555,6.859c8.484.011,15.459-6.41,21.214-12.643a12.9,12.9,0,0,0,3.01-4.361c1.167-3.42-.724-7.263-3.52-9.561s-6.321-3.439-9.689-4.752a84.018,84.018,0,0,1-16.246-8.484,31.821,31.821,0,0,1-8.737-7.963c-1.938-2.809-3.1-6.064-4.4-9.221-2.849-6.911-6.877-13.935-13.6-17.178-5.493-2.649-11.872-2.353-17.969-2.423-8.984-.1-18.2-1.18-26.16-5.335-6.727-3.509-12.252-9.049-19.078-12.366-10.858-5.272-23.272-4.238-34.972-4.039-5.623.1-12.306.657-17.707-1.185-3.994-1.363-6.05-4.148-10.638-3.026A12.877,12.877,0,0,0,53.016,169.866Z" transform="translate(-44.49 -155.23)" fill="#e83d84" opacity="0.1"/>
    <path id="Path_69" data-name="Path 69" d="M260.012,275.139a4.524,4.524,0,0,1,.085-2.87c.543-1.4,1.866-2.418,2.331-3.853.865-2.666-1.466-5.161-2.9-7.577a12.726,12.726,0,0,1-1.7-7.42c.223-2.78,1.361-5.438,1.448-8.225a22.007,22.007,0,0,0-1.594-7.585,26.262,26.262,0,0,0-2.545-5.9,13.5,13.5,0,0,0-10.1-5.916c-1.891-.168-3.741.447-5.6.206-2.581-.333-5.02-1-7.652-1.086-2.5-.074-5.263.242-6.966,2.074-1.3,1.4-1.717,3.428-2.908,4.926-1.69,2.126-4.646,2.856-6.515,4.825a6.835,6.835,0,0,0-1.544,6.593c.259.84.682,1.62.957,2.454,1.156,3.486-.362,7.214-1.28,10.768a1.629,1.629,0,0,0-.054.9c.145.434.6.662.979.919a5.122,5.122,0,0,1,1.991,3.864,14.531,14.531,0,0,1-.565,4.439c-.867,3.708-1.951,7.681-4.809,10.147a26.1,26.1,0,0,0-1.835-3.576,19.425,19.425,0,0,1-3.064-9.684.125.125,0,0,1,0-.031c0-.181.009-.362.02-.543.226-3.953,1.935-7.766,1.9-11.7q0-.478-.027-.957c-.223-3.368-1.841-6.483-3.7-9.3a22.655,22.655,0,0,0-4.942-5.67c-3.089-2.351-7.015-3.372-10.871-3.911s-7.366-1.046-11.253-1.307c-4.181-.281-8.781-.438-12.086,2.135-4.309,3.355-4.548,9.836-7.833,14.2-1.955,2.6-5.067,4.6-6.1,7.548a18.23,18.23,0,0,1-.695-2.217l-.033-.15a21.579,21.579,0,0,0,.838-11.081,13.634,13.634,0,0,0,.125-1.81,7.128,7.128,0,0,0-.212-1.956,11.242,11.242,0,0,0-2.988-4.51,13.234,13.234,0,0,0-1.466-1.421,21.485,21.485,0,0,0-36.637,21.355,5.625,5.625,0,0,1-1.515,3.3c-.4.4-.918.892-.831,1.4a.682.682,0,0,0,.058.425,1.191,1.191,0,0,0,.362.4,6.515,6.515,0,0,0,4.432,1.321,18.532,18.532,0,0,0,7.463,9.581q0,.181-.013.351c0,.2-.016.4-.025.6v.083c0-.018-6.3,8.214-12.125,8.52-3.109.163-5.822,2.26-7.878,4.658a20.4,20.4,0,0,0-4.123,7.1c-.241,1.679-1.92,9.841-1.92,9.841h48.382c-.572,2.939-1.343,6.683-1.343,6.683h78.324c-.181-2.517-.382-4.845-.568-6.816h9.847l-.011.06h45.425l2.881-4.323C276.332,282.833,268.9,275.907,260.012,275.139ZM146.92,261.067a11.733,11.733,0,0,0,3.258,1.173,1.958,1.958,0,0,0,1.468-.112,1.687,1.687,0,0,0,.592-.838l.022.054a31.962,31.962,0,0,1,2.572,9.555c.02.311.033.623.034.936a13.533,13.533,0,0,1-1.142,5.476,105.568,105.568,0,0,1-11.812-7.239l-.255-.109c0,.02.089.246.194.628.025.092.052.194.08.3q-.388-1.254-.7-2.561l-.071-.309A18.555,18.555,0,0,0,146.92,261.067Z" transform="translate(-85.13 -210.755)" fill="url(#linear-gradient)"/>
    <path id="Path_70" data-name="Path 70" d="M238,480.178v0Z" transform="translate(-202.979 -421.232)" fill="#fff"/>
    <path id="Path_71" data-name="Path 71" d="M237.93,479.5v0Z" transform="translate(-202.922 -420.675)" fill="#fff"/>
    <path id="Path_72" data-name="Path 72" d="M237.88,479.07Z" transform="translate(-202.881 -420.421)" fill="#fff"/>
    <path id="Path_73" data-name="Path 73" d="M237.89,479.38Z" transform="translate(-202.889 -420.675)" fill="#fff"/>
    <path id="Path_74" data-name="Path 74" d="M237.88,479.22Z" transform="translate(-202.881 -420.544)" fill="#fff"/>
    <path id="Path_75" data-name="Path 75" d="M741.321,236.735c-2.459-.074-5.181.239-6.855,2.041-1.281,1.379-1.69,3.373-2.863,4.848-1.663,2.094-4.571,2.811-6.414,4.749a6.729,6.729,0,0,0-1.52,6.49c.255.825.671,1.594.943,2.414,1.138,3.439-.347,7.1-1.267,10.6a1.593,1.593,0,0,0-.052.894c.141.427.592.652.963.9a5.006,5.006,0,0,1,1.951,3.8,14.585,14.585,0,0,1-.556,4.369c-.889,3.8-2.011,7.892-5.1,10.287-1.3,1.023-3.044,1.851-3.384,3.48-.4,1.907,1.422,3.529,3.169,4.392,5.127,2.534,11.079,2.57,16.688,3.7,4.939,1,9.865,2.881,14.864,2.237a29.978,29.978,0,0,0,6.466-1.846l13.128-4.837a3.414,3.414,0,0,0,1.032-.519,2.437,2.437,0,0,0,.387-2.847,10.365,10.365,0,0,0-1.9-2.42c-1.5-1.678-2.639-4.047-1.821-6.142.543-1.383,1.837-2.38,2.295-3.8.851-2.624-1.448-5.082-2.841-7.46a12.525,12.525,0,0,1-1.676-7.3c.219-2.736,1.339-5.353,1.421-8.1a21.671,21.671,0,0,0-1.569-7.465,25.875,25.875,0,0,0-2.5-5.806,13.3,13.3,0,0,0-9.939-5.824c-1.862-.165-3.681.44-5.511.2C746.314,237.472,743.91,236.813,741.321,236.735Z" transform="translate(-595.385 -221.935)" fill="#f7d6c8"/>
    <path id="Path_76" data-name="Path 76" d="M819.3,441.156s-14.883-9.331-9.1-20.088a16.6,16.6,0,0,0,2.052-6.987,15.089,15.089,0,0,0,0-1.7V412.3q-.029-.438-.078-.861a17.539,17.539,0,0,0-4.338-9.38s24.687-7.2,20.553-.709c-1.918,3.015-1.345,5.972-.06,9.032.136.322.281.648.431.972,1.484,3.227,3.544,6.569,4.119,10.194C834.063,428.989,819.3,441.156,819.3,441.156Z" transform="translate(-669.692 -354.543)" fill="#efb7b9"/>
    <path id="Path_77" data-name="Path 77" d="M828.393,401.345c-1.918,3.015-1.345,5.972-.06,9.032a16.68,16.68,0,0,1-16.161,1.064,17.514,17.514,0,0,0-4.333-9.387S832.529,394.848,828.393,401.345Z" transform="translate(-669.692 -354.539)" opacity="0.1"/>
    <circle id="Ellipse_4" data-name="Ellipse 4" cx="16.655" cy="16.655" r="16.655" transform="translate(132.95 24.836)" fill="#efb7b9"/>
    <path id="Path_78" data-name="Path 78" d="M832.24,474.114v-.081l.02-.033A.541.541,0,0,0,832.24,474.114Z" transform="translate(-689.677 -416.269)" opacity="0.1"/>
    <path id="Path_79" data-name="Path 79" d="M823.947,498.68s-14.883-9.331-9.1-20.088A16.6,16.6,0,0,0,816.9,471.6c.338,2.657,2.172,5.96,5.509,10.531a14.8,14.8,0,0,1,2.268,7.556l.331.241,1.629-.985c.181-3.077.8-6.186,2.277-8.39,3.871-5.791,4.79-8.687,4.5-11.687,1.484,3.227,3.544,6.569,4.119,10.194C838.711,486.513,823.947,498.68,823.947,498.68Z" transform="translate(-674.34 -412.067)" opacity="0.1"/>
    <path id="Path_80" data-name="Path 80" d="M725.523,475.669c-8.868-.644-14.478-7.529-14.478-7.529.472,3.225-.295,6.112-4.43,12.306-1.464,2.2-2.085,5.3-2.266,8.385l-1.629.985-.331-.241a14.786,14.786,0,0,0-2.268-7.556c-4.133-5.67-5.972-9.391-5.493-12.344,0,0-4.548,7.382-13.407,7.974s-16.3,6.852-17.012,18.309l2.834,3.9H695l-.011.06h44.7l2.845-4.258C741.823,483.148,734.39,476.313,725.523,475.669Z" transform="translate(-552.056 -411.469)" fill="#e83d84"/>
    <path id="Path_81" data-name="Path 81" d="M725.523,475.669c-8.868-.644-14.478-7.529-14.478-7.529.472,3.225-.295,6.112-4.43,12.306-1.464,2.2-2.085,5.3-2.266,8.385l-1.629.985-.331-.241a14.786,14.786,0,0,0-2.268-7.556c-4.133-5.67-5.972-9.391-5.493-12.344,0,0-4.548,7.382-13.407,7.974s-16.3,6.852-17.012,18.309l2.834,3.9H695l-.011.06h44.7l2.845-4.258C741.823,483.148,734.39,476.313,725.523,475.669Z" transform="translate(-552.056 -411.469)" opacity="0.05"/>
    <path id="Path_82" data-name="Path 82" d="M801.157,286.462a13.572,13.572,0,0,1-3.413,4.633c-1.94,1.837-4.38,3.455-7.047,3.33a10.809,10.809,0,0,0,3.042-5c-1.683.981-2.955,2.534-4.562,3.639s-3.878,1.676-5.449.521a16.335,16.335,0,0,0,6.817-6.441c-3.815.99-5.773,5.286-9.21,7.215a10.448,10.448,0,0,1-5.341,1.205,4.189,4.189,0,0,1-3.505-1.422,4.04,4.04,0,0,1-.543-2.2,15,15,0,0,1,3.511-9.579,25.091,25.091,0,0,1,8.158-6.35,11.278,11.278,0,0,1,3.473-1.267,12.558,12.558,0,0,1,4.571.447,26.066,26.066,0,0,1,5.688,1.81C801.167,278.9,802.836,282.328,801.157,286.462Z" transform="translate(-640.291 -253.021)" opacity="0.1"/>
    <path id="Path_83" data-name="Path 83" d="M801.157,285.152a13.572,13.572,0,0,1-3.413,4.633c-1.94,1.837-4.38,3.455-7.047,3.33a10.809,10.809,0,0,0,3.042-5c-1.683.981-2.955,2.534-4.562,3.639s-3.878,1.676-5.449.521a16.334,16.334,0,0,0,6.817-6.441c-3.815.99-5.773,5.286-9.21,7.215a10.448,10.448,0,0,1-5.341,1.205,4.189,4.189,0,0,1-3.505-1.422,4.04,4.04,0,0,1-.543-2.2,15,15,0,0,1,3.511-9.579,25.091,25.091,0,0,1,8.158-6.35,11.278,11.278,0,0,1,3.473-1.267,12.558,12.558,0,0,1,4.571.447,26.066,26.066,0,0,1,5.688,1.81C801.167,277.587,802.836,281.018,801.157,285.152Z" transform="translate(-640.291 -251.948)" fill="#f7d6c8"/>
    <circle id="Ellipse_5" data-name="Ellipse 5" cx="21.143" cy="21.143" r="21.143" transform="translate(24.883 12.978)" fill="#c3705a"/>
    <path id="Path_84" data-name="Path 84" d="M257.038,411.61s-19.364,4.961-19.844,5.429-16.3,1.3-11.695-8.386c1.692-3.556,2.4-8.386,2.61-13.075.009-.2.018-.4.025-.594a96.586,96.586,0,0,0-.744-15.153s22.441-8.868,20.789,4.608a28.155,28.155,0,0,0,.679,9.887c.25,1.057.543,2.09.869,3.093A52.738,52.738,0,0,0,257.038,411.61Z" transform="translate(-192.053 -336.797)" fill="#ecb4b6"/>
    <path id="Path_85" data-name="Path 85" d="M261.207,394.345a18.2,18.2,0,0,1-20.723.659,96.583,96.583,0,0,0-.744-15.153s22.441-8.868,20.789,4.608A28.235,28.235,0,0,0,261.207,394.345Z" transform="translate(-204.404 -336.813)" opacity="0.1"/>
    <circle id="Ellipse_6" data-name="Ellipse 6" cx="18.19" cy="18.19" r="18.19" transform="translate(27.776 24.376)" fill="#ecb4b6"/>
    <path id="Path_86" data-name="Path 86" d="M257.038,495.833s-19.364,4.961-19.844,5.429-16.3,1.3-11.695-8.386c1.692-3.556,2.4-8.386,2.61-13.075.181,2.45,1.582,8.385,1.761,10.359a1.72,1.72,0,0,0,.069.34,7.293,7.293,0,0,0,2.326,2.849l.067.056a8.627,8.627,0,0,0,10.16.679,45.832,45.832,0,0,0,4.626-3.334,8.092,8.092,0,0,0,2.845-6.153,13.171,13.171,0,0,0-.235-2.964A52.707,52.707,0,0,0,257.038,495.833Z" transform="translate(-192.053 -421.019)" opacity="0.1"/>
    <path id="Path_87" data-name="Path 87" d="M181.028,509.929H102s1.654-8.032,1.889-9.686a20.023,20.023,0,0,1,4.059-6.991c2.023-2.353,4.693-4.425,7.753-4.586,5.728-.3,11.93-8.386,11.93-8.386h0c.138,2.353,1.589,8.5,1.772,10.513a1.721,1.721,0,0,0,.069.34,7.293,7.293,0,0,0,2.326,2.849l.067.056a8.625,8.625,0,0,0,10.16.68,46,46,0,0,0,4.626-3.334,8.092,8.092,0,0,0,2.845-6.153,13.629,13.629,0,0,0-.494-4.07,6.444,6.444,0,0,0-.192-.617l.252.107s10.7,7.782,20.5,10.963a11.723,11.723,0,0,1,3.214,1.629,13.894,13.894,0,0,1,2.183,1.96,20.316,20.316,0,0,1,3.258,5.011A34.4,34.4,0,0,1,181.028,509.929Z" transform="translate(-91.592 -421.412)" fill="#e83d84"/>
    <path id="Path_88" data-name="Path 88" d="M181.028,509.929H102s1.654-8.032,1.889-9.686a20.023,20.023,0,0,1,4.059-6.991c2.023-2.353,4.693-4.425,7.753-4.586,5.728-.3,11.93-8.386,11.93-8.386h0c.138,2.353,1.589,8.5,1.772,10.513a1.721,1.721,0,0,0,.069.34,7.293,7.293,0,0,0,2.326,2.849l.067.056a8.625,8.625,0,0,0,10.16.68,46,46,0,0,0,4.626-3.334,8.092,8.092,0,0,0,2.845-6.153,13.629,13.629,0,0,0-.494-4.07,6.444,6.444,0,0,0-.192-.617l.252.107s10.7,7.782,20.5,10.963a11.723,11.723,0,0,1,3.214,1.629,13.894,13.894,0,0,1,2.183,1.96,20.316,20.316,0,0,1,3.258,5.011A34.4,34.4,0,0,1,181.028,509.929Z" transform="translate(-91.592 -421.412)" opacity="0.05"/>
    <path id="Path_89" data-name="Path 89" d="M207.59,267.034c.471,1.81,1.086,3.82,2.7,4.763a2.374,2.374,0,0,1,.592.4c.4.433.277,1.108.217,1.694a7,7,0,0,0,2.078,5.494,10.326,10.326,0,0,0,5.321,2.729,1.935,1.935,0,0,0,1.448-.11,1.689,1.689,0,0,0,.594-.852,7.211,7.211,0,0,0-.143-4.615c-.462-1.5-1.142-2.928-1.491-4.457-.831-3.629.27-7.378.766-11.068a9.5,9.5,0,0,0-.056-3.688,11.075,11.075,0,0,0-2.941-4.439A9.071,9.071,0,0,0,214.5,251c-2.487-1.359-5.688-.152-8.343-1.142a31.292,31.292,0,0,1-2.977-1.629,10.79,10.79,0,0,0-7.049-.652,32.13,32.13,0,0,0-6.745,2.516l-1.67.756c-2.353,1.086-4.874,2.313-6.14,4.584-1.348,2.418-.974,5.513-2.322,7.93a6.579,6.579,0,0,0-1.086,2.251,4.49,4.49,0,0,0,.284,1.783,14.272,14.272,0,0,1,.753,4.343,5.835,5.835,0,0,1-1.549,4.029c-.442.438-1.032,1-.76,1.558a1.173,1.173,0,0,0,.362.391,6.408,6.408,0,0,0,6.1.9,3.964,3.964,0,0,0,1.991-1.5,5.88,5.88,0,0,0,.641-1.679,23.458,23.458,0,0,0,1.1-6.5,23.007,23.007,0,0,1-.072-3.8,3.4,3.4,0,0,1,2.139-2.9,10.673,10.673,0,0,1,2.818.045c1.361-.011,3.03-1.52,4.291-1.077,1.086.384,1.945,2.461,2.843,3.258A10.307,10.307,0,0,0,207.59,267.034Z" transform="translate(-152.879 -230.576)" opacity="0.1"/>
    <path id="Path_90" data-name="Path 90" d="M207.656,265.683c.471,1.81,1.086,3.82,2.7,4.763a2.373,2.373,0,0,1,.585.395c.4.433.277,1.108.217,1.694a7,7,0,0,0,2.078,5.494,10.326,10.326,0,0,0,5.321,2.729,1.935,1.935,0,0,0,1.448-.11,1.689,1.689,0,0,0,.594-.852,7.211,7.211,0,0,0-.143-4.615c-.461-1.5-1.142-2.928-1.491-4.457-.831-3.629.27-7.378.766-11.068a9.5,9.5,0,0,0-.056-3.688,11.075,11.075,0,0,0-2.941-4.439,9.072,9.072,0,0,0-2.172-1.891c-2.487-1.359-5.688-.152-8.343-1.142a31.294,31.294,0,0,1-2.977-1.629,10.789,10.789,0,0,0-7.049-.652,32.13,32.13,0,0,0-6.745,2.516l-1.649.76c-2.353,1.086-4.874,2.313-6.14,4.584-1.348,2.418-.974,5.512-2.322,7.93a6.579,6.579,0,0,0-1.086,2.251,4.49,4.49,0,0,0,.284,1.783,14.271,14.271,0,0,1,.753,4.343,5.836,5.836,0,0,1-1.549,4.029c-.442.438-1.032,1-.76,1.558a1.173,1.173,0,0,0,.362.391,6.408,6.408,0,0,0,6.1.9,3.965,3.965,0,0,0,1.991-1.5,5.879,5.879,0,0,0,.641-1.679,23.457,23.457,0,0,0,1.1-6.5,23.008,23.008,0,0,1-.072-3.8,3.4,3.4,0,0,1,2.139-2.9,10.673,10.673,0,0,1,2.818.045c1.361-.011,3.03-1.52,4.291-1.077,1.086.384,1.945,2.461,2.843,3.258A10.236,10.236,0,0,0,207.656,265.683Z" transform="translate(-152.945 -229.462)" fill="#c3705a"/>
    <rect id="Rectangle_27" data-name="Rectangle 27" width="41.461" height="35.554" transform="translate(73.844 43.947)" fill="#463a3e"/>
    <rect id="Rectangle_28" data-name="Rectangle 28" width="41.461" height="35.554" transform="translate(73.844 43.947)" opacity="0.05"/>
    <path id="Path_91" data-name="Path 91" d="M488.241,449.064H452.77a18.043,18.043,0,0,1,4.407-8.464,31.31,31.31,0,0,0,5-8q.5-1.164.9-2.333a34.16,34.16,0,0,0,1.591-7.134,1.994,1.994,0,0,1,.023-.206,38.983,38.983,0,0,0,.221-5.053v-.362a46.044,46.044,0,0,0-2.036-12.2l-.045-.141c-.385-1.214-.668-1.9-.668-1.9s.7-.382,1.866-.945l.1-.047c4.273-2.052,14.387-6.334,18.847-3.283l.072.049c1.56,1.111,2.4,3.151,2.005,6.548v.04a1.793,1.793,0,0,1-.02.181,65.739,65.739,0,0,0-.338,7.047c0,.118,0,.235,0,.362q0,.827.018,1.676v.228c.036,1.828.118,3.715.232,5.63.157,2.655.382,5.359.641,8.012.11,1.135.23,2.262.362,3.372.014.13.029.264.043.393.152,1.352.309,2.677.471,3.962l.011.083C487.088,441.684,487.769,446.14,488.241,449.064Z" transform="translate(-378.881 -353.971)" fill="#c17174"/>
    <path id="Path_92" data-name="Path 92" d="M527.522,405.639v.04a65.087,65.087,0,0,0-.362,7.239v.362a17.267,17.267,0,0,1-19.771,4.647v-.362a45.952,45.952,0,0,0-2.081-12.342c-.385-1.214-.668-1.9-.668-1.9s.7-.382,1.866-.945c4.231-2.045,14.556-6.461,19.011-3.29C527.075,400.2,527.915,402.242,527.522,405.639Z" transform="translate(-421.364 -354.007)" opacity="0.1"/>
    <circle id="Ellipse_7" data-name="Ellipse 7" cx="17.251" cy="17.251" r="17.251" transform="translate(75.472 30.401)" fill="#c17174"/>
    <path id="Path_93" data-name="Path 93" d="M395.341,586.678h-36.8s1.654-8.032,1.889-9.686A20.023,20.023,0,0,1,364.489,570a17.855,17.855,0,0,1,10.982-3.9c7.038-.1,9.087,2.318,9.642,4.11a4.013,4.013,0,0,1,.145,1.862l1.332,1.929Z" transform="translate(-301.704 -491.702)" opacity="0.1"/>
    <path id="Path_94" data-name="Path 94" d="M394.691,587.328h-36.8s1.654-8.032,1.889-9.686a20.024,20.024,0,0,1,4.059-6.991,17.854,17.854,0,0,1,10.982-3.9c7.038-.1,9.087,2.318,9.642,4.11a4.013,4.013,0,0,1,.145,1.862l1.332,1.929Z" transform="translate(-301.172 -492.235)" fill="#e83d84"/>
    <path id="Path_95" data-name="Path 95" d="M608.719,583.928H570.16c1.839-3.913,6.658-14.344,6.926-16.757.1-.934,1.1-1.81,2.416-2.554a13.744,13.744,0,0,1,1.283-.648l.08-.036q.362-.159.733-.3a14.688,14.688,0,0,1,10.316.081c3.165,1.2,7.239,2.825,10.41,4.343l.025.013c.814.391,1.573.773,2.24,1.14a8.8,8.8,0,0,1,2.686,1.938,12.345,12.345,0,0,1,.57,3.077C608.121,576.559,608.424,580.012,608.719,583.928Z" transform="translate(-475.026 -488.952)" opacity="0.1"/>
    <path id="Path_96" data-name="Path 96" d="M609.369,584.578H570.81c1.839-3.913,6.658-14.344,6.926-16.756.1-.934,1.1-1.81,2.416-2.554a13.707,13.707,0,0,1,1.283-.648l.08-.036q.362-.159.733-.295a14.688,14.688,0,0,1,10.316.081c3.165,1.2,7.239,2.825,10.41,4.343l.025.013c.814.391,1.573.773,2.24,1.14a8.794,8.794,0,0,1,2.686,1.938,12.349,12.349,0,0,1,.57,3.077C608.773,577.209,609.074,580.663,609.369,584.578Z" transform="translate(-475.559 -489.484)" fill="#e83d84"/>
    <path id="Path_97" data-name="Path 97" d="M429.022,321.773q0,.834-.045,1.67-.025.407-.062.814c-.016.2-.036.389-.056.583l-.025.224c-.3,2.631-.84,5.248-.9,7.892v.375a32.937,32.937,0,0,0,.934,7.362H406.657c-.036-.451-.054-.9-.049-1.352a11.864,11.864,0,0,1,.067-1.213c.342-3.332,2.045-6.45,2.3-9.76l.011-.152c.016-.248.025-.5.022-.747V327.4a12.794,12.794,0,0,0-.5-3.232l-.043-.157a32.552,32.552,0,0,0-1.086-3.077l-.08-.2c-.6-1.506-1.236-3-1.665-4.5a11.96,11.96,0,0,1-.523-3.439c0-.208.013-.416.029-.624.014-.17.034-.34.06-.512a8.014,8.014,0,0,1,.159-.8,17.537,17.537,0,0,1,1.875-4.088h0a11.762,11.762,0,0,0,1.75-4.485,5.18,5.18,0,0,0,.02-.59h0a5.2,5.2,0,0,0-.072-.756,12.981,12.981,0,0,0-1.222-3.106c-.047-.1-.094-.206-.139-.311,0-.016-.014-.033-.02-.049a41.558,41.558,0,0,1-1.982-6.539c-.024-.1-.047-.192-.072-.286-.136-.543-.275-1.086-.423-1.629-.811-2.961-1.965-5.952-4.162-8.09s-5.7-3.22-8.451-1.859c-2.38,1.185-3.668,3.839-4.249,6.43s-.628,5.3-1.383,7.845q-.081.279-.181.556c-.033.094-.065.181-.1.284a28.434,28.434,0,0,1-1.155,2.745l-.045.1c-1.375,2.926-2.973,5.8-3.024,8.743v.275a7.585,7.585,0,0,0,.315,2.063,10.28,10.28,0,0,0,1.781,3.258q.226.295.463.585c.76.934,1.585,1.839,2.307,2.8l.024.031a11.447,11.447,0,0,1,1.381,2.3,8.41,8.41,0,0,1,.036,6.5,12.2,12.2,0,0,1-.7,1.386c-.465.8-.977,1.585-1.381,2.421a9.054,9.054,0,0,0-.362.856c-.9,2.331-1.1,4.91-1.839,7.315a16.608,16.608,0,0,1-2.63,5.12H358.19c.273-1.337,1.629-7.963,1.842-9.451a20.023,20.023,0,0,1,4.059-6.991c-.2.161-.4.324-.592.487a20.131,20.131,0,0,0-3.94,4.535c.052-.163.107-.328.161-.49.331-.988.689-1.967,1.053-2.934,1.053-2.783,2.226-5.623,4.325-7.733,1.185-1.191,2.628-2.108,3.757-3.352a11.963,11.963,0,0,0,2.791-8.191c0-.308-.013-.614-.033-.919a31.42,31.42,0,0,0-2.534-9.411,13.517,13.517,0,0,1-1.3-5.067,5.643,5.643,0,0,1,.052-.724c.5-3.578,4.117-5.721,6.291-8.607,3.232-4.295,3.467-10.678,7.708-13.975,3.258-2.534,7.782-2.378,11.9-2.1,3.826.257,7.279.755,11.076,1.287s7.65,1.531,10.7,3.871a22.29,22.29,0,0,1,4.865,5.581c1.824,2.776,3.419,5.842,3.638,9.156.016.237.025.472.025.706.038,3.873-1.643,7.626-1.866,11.515-.009.181-.016.362-.018.543a.121.121,0,0,0,0,.029,18.984,18.984,0,0,0,3.015,9.773A26.211,26.211,0,0,1,429.022,321.773Z" transform="translate(-301.418 -245.6)" opacity="0.1"/>
    <path id="Path_98" data-name="Path 98" d="M428.776,320.733c0,.478-.018.957-.045,1.433q-.025.407-.062.814t-.081.807c-.295,2.631-.84,5.248-.9,7.892v.61a34,34,0,0,0,.986,7.362H406.431c-.042-.451-.067-.9-.071-1.352a12.945,12.945,0,0,1,.067-1.448c.342-3.332,2.045-6.45,2.3-9.76.018-.243.031-.485.033-.724v-.17a12.948,12.948,0,0,0-.541-3.457,32.555,32.555,0,0,0-1.086-3.077c-.626-1.573-1.3-3.134-1.746-4.705a12.24,12.24,0,0,1-.523-3.209,8.427,8.427,0,0,1,.029-.861c.014-.17.034-.34.06-.512a8.019,8.019,0,0,1,.159-.8,17.537,17.537,0,0,1,1.875-4.088A11.744,11.744,0,0,0,408.742,301c.011-.118.016-.237.02-.362h0a5.066,5.066,0,0,0-.072-.994,12.982,12.982,0,0,0-1.222-3.106c-.047-.1-.094-.206-.139-.311a40.68,40.68,0,0,1-2-6.587c-.159-.641-.322-1.281-.494-1.917-.811-2.961-1.965-5.952-4.162-8.09s-5.7-3.2-8.444-1.83c-2.38,1.185-3.668,3.839-4.249,6.43s-.628,5.3-1.383,7.845c-.083.281-.181.561-.273.84-.337.954-.756,1.9-1.2,2.841-1.413,3-3.058,5.956-3.024,8.98v.038a7.584,7.584,0,0,0,.315,2.063,10.28,10.28,0,0,0,1.781,3.258q.226.295.463.584c.769.945,1.6,1.859,2.331,2.832a11.45,11.45,0,0,1,1.381,2.3,8.41,8.41,0,0,1,.036,6.5,12.211,12.211,0,0,1-.7,1.386c-.465.8-.977,1.585-1.381,2.421a9.037,9.037,0,0,0-.362.856c-.9,2.331-1.1,4.91-1.839,7.315a16.65,16.65,0,0,1-2.811,5.355H357.89s1.654-8.032,1.889-9.686a19.168,19.168,0,0,1,3.468-6.267c.181-.242.387-.485.592-.724a20.278,20.278,0,0,0-4.369,4.767l-.161.253c.376-1.156.791-2.3,1.216-3.424,1.053-2.783,2.226-5.623,4.325-7.733,1.185-1.191,2.628-2.108,3.757-3.352a11.924,11.924,0,0,0,2.791-7.963c0-.387,0-.773-.033-1.156a31.421,31.421,0,0,0-2.534-9.411,14.456,14.456,0,0,1-1.3-4.839,5.88,5.88,0,0,1,.052-.954c.5-3.558,4.119-5.692,6.292-8.587,3.232-4.295,3.468-10.678,7.708-13.975,3.258-2.534,7.782-2.378,11.9-2.1,3.826.257,7.279.755,11.076,1.287s7.655,1.529,10.7,3.862a22.426,22.426,0,0,1,4.865,5.583c1.824,2.776,3.419,5.842,3.638,9.156q.033.472.025.943c-.031,3.788-1.649,7.469-1.866,11.28-.014.257-.022.512-.018.771a.121.121,0,0,0,0,.029,19.123,19.123,0,0,0,3.015,9.532A26.213,26.213,0,0,1,428.776,320.733Z" transform="translate(-301.172 -244.56)" fill="#463a3e"/>
  </g>
</svg>
